<?xml version="1.0" standalone="no"?>
<!DOCTYPE svg PUBLIC "-//W3C//DTD SVG 20010904//EN"
 "http://www.w3.org/TR/2001/REC-SVG-20010904/DTD/svg10.dtd">
<svg version="1.0" xmlns="http://www.w3.org/2000/svg"
 width="847.000000pt" height="800.000000pt" viewBox="0 0 847.000000 800.000000"
 preserveAspectRatio="xMidYMid meet">

<g transform="translate(0.000000,800.000000) scale(0.100000,-0.100000)"
fill="#000000" stroke="none">
<path d="M4120 7455 l0 -216 23 3 c21 3 22 8 25 113 2 103 4 111 28 133 31 27
77 29 104 2 18 -18 20 -33 20 -135 l0 -115 25 0 25 0 0 110 c0 119 -13 170
-48 189 -30 16 -104 13 -127 -5 -19 -15 -20 -13 -25 58 -5 66 -7 73 -27 76
l-23 3 0 -216z"/>
<path d="M4907 7578 c-6 -22 6 -38 29 -38 10 0 23 30 24 53 0 4 -11 7 -24 7
-16 0 -26 -7 -29 -22z"/>
<path d="M5087 7563 c-2 -5 -26 -95 -52 -201 -34 -137 -45 -196 -37 -204 20
-20 38 0 51 55 9 41 18 57 36 65 29 13 25 18 59 -84 26 -79 38 -93 78 -94 6 0
-32 115 -67 201 -5 13 9 25 60 53 36 21 63 41 60 47 -12 19 -57 8 -121 -32
-36 -22 -68 -38 -71 -36 -2 3 8 51 22 107 14 57 24 109 21 116 -6 15 -32 19
-39 7z"/>
<path d="M3833 7525 c-47 -20 -73 -68 -73 -135 1 -110 51 -170 145 -170 37 0
51 6 80 33 19 17 37 44 41 60 5 24 3 27 -17 27 -17 0 -28 -10 -39 -33 -8 -18
-27 -36 -41 -41 -67 -23 -119 30 -119 122 0 46 4 58 29 83 38 37 75 38 109 1
43 -45 83 -23 44 24 -36 45 -97 56 -159 29z"/>
<path d="M4515 7528 c-2 -7 -9 -60 -15 -118 -6 -58 -13 -122 -16 -142 -5 -35
-4 -38 19 -38 27 0 28 4 42 130 8 74 22 105 51 119 34 15 55 14 83 -5 23 -16
23 -20 17 -108 -4 -50 -9 -105 -12 -122 -5 -27 -3 -32 19 -36 28 -5 30 3 43
167 6 86 5 92 -17 119 -31 35 -92 45 -137 22 -19 -10 -33 -12 -37 -6 -3 6 -3
10 2 10 10 0 -19 20 -30 20 -4 0 -9 -6 -12 -12z"/>
<path d="M3170 7495 c-8 -9 -10 -28 -5 -55 5 -32 3 -41 -9 -46 -25 -9 -19 -34
8 -34 21 0 26 -9 52 -107 32 -123 50 -148 97 -138 40 9 49 17 41 39 -5 12 -13
16 -30 12 -28 -8 -34 3 -64 109 -12 43 -24 84 -27 91 -2 6 8 14 22 18 37 9 30
42 -8 38 -24 -3 -28 1 -39 42 -13 49 -19 54 -38 31z"/>
<path d="M3482 7480 c-70 -17 -109 -84 -99 -172 8 -65 33 -104 84 -129 66 -32
151 -8 187 51 38 65 -4 86 -45 23 -29 -45 -72 -58 -117 -36 -26 13 -62 67 -51
77 2 2 45 11 94 20 143 27 141 25 105 96 -32 62 -88 87 -158 70z m95 -62 c29
-27 29 -46 1 -53 -143 -32 -148 -32 -148 0 0 65 97 100 147 53z"/>
<path d="M4881 7438 c-18 -87 -41 -222 -41 -241 0 -13 6 -17 22 -15 20 3 24
17 49 148 14 80 26 146 25 146 0 1 -11 5 -23 8 -19 6 -22 2 -32 -46z"/>
<path d="M5425 7331 c-11 -5 -28 -18 -38 -29 -18 -20 -18 -20 2 -27 11 -3 34
1 51 10 58 30 138 -18 123 -74 -5 -21 -10 -23 -47 -17 -133 21 -153 20 -180
-7 -18 -18 -26 -37 -26 -59 0 -67 52 -103 139 -96 42 2 51 0 51 -13 0 -9 7
-20 16 -23 24 -9 34 -7 34 7 0 6 16 63 37 125 35 105 37 114 23 139 -27 47
-136 85 -185 64z m51 -173 c32 -6 60 -12 62 -14 8 -6 -30 -64 -47 -74 -31 -16
-76 -12 -105 11 -30 24 -33 45 -9 71 19 21 22 21 99 6z"/>
<path d="M2616 7317 c-16 -11 -17 -17 -6 -36 7 -14 17 -20 27 -17 8 3 17 6 19
6 9 0 3 27 -9 43 -10 15 -15 16 -31 4z"/>
<path d="M2893 7310 c-18 -10 -39 -33 -48 -49 -49 -96 30 -251 129 -251 58 1
111 33 136 84 20 42 21 52 11 93 -26 101 -70 143 -151 143 -27 0 -58 -8 -77
-20z m118 -30 c28 -15 60 -85 61 -132 1 -54 -36 -92 -87 -91 -60 2 -105 63
-105 142 0 72 68 114 131 81z"/>
<path d="M2440 7240 c-13 -8 -11 -18 15 -66 17 -32 32 -61 33 -66 2 -4 -15 -8
-37 -8 -31 0 -49 -7 -76 -31 -32 -28 -35 -36 -35 -85 0 -128 106 -221 204
-180 22 9 41 26 48 43 16 38 18 39 27 25 8 -14 41 -6 41 10 0 10 -64 134 -152
296 -22 39 -43 72 -46 72 -4 0 -14 -5 -22 -10z m49 -180 c16 0 63 -55 77 -88
30 -74 2 -132 -64 -132 -69 0 -140 113 -112 179 12 30 53 53 78 45 8 -2 17 -4
21 -4z"/>
<path d="M2661 7211 c-12 -8 -8 -24 22 -93 83 -192 87 -199 108 -187 13 7 18
16 14 29 -15 46 -112 254 -121 257 -5 1 -15 -1 -23 -6z"/>
<path d="M5926 7125 c-5 -15 26 -36 119 -83 l40 -20 -35 -14 c-19 -8 -83 -32
-143 -54 -72 -26 -109 -45 -113 -57 -3 -10 -4 -20 -2 -22 1 -1 53 -30 113 -63
79 -43 113 -57 123 -50 6 6 12 14 12 18 0 5 -41 31 -90 57 l-90 49 112 43
c138 53 181 73 185 86 3 10 -196 125 -215 125 -6 0 -12 -7 -16 -15z"/>
<path d="M3795 7060 c-500 -67 -938 -222 -1355 -478 -365 -225 -727 -566 -972
-917 -324 -465 -529 -1007 -590 -1560 -17 -158 -17 -576 1 -730 146 -1291
1022 -2383 2240 -2795 565 -191 1127 -231 1724 -120 582 107 1171 405 1622
820 527 485 877 1113 1019 1825 77 388 79 851 5 1250 -71 384 -243 829 -441
1144 -329 522 -794 950 -1325 1220 -354 180 -706 286 -1128 341 -199 26 -606
26 -800 0z m765 -235 c591 -71 1132 -297 1589 -664 504 -405 876 -972 1046
-1593 78 -285 109 -519 109 -828 0 -236 -13 -377 -51 -575 -122 -635 -404
-1164 -868 -1630 -224 -226 -446 -388 -755 -553 -157 -84 -136 -86 -236 26
-48 53 -124 138 -169 187 -45 50 -129 142 -185 205 -124 139 -211 234 -401
444 -79 88 -164 182 -188 210 -147 171 -212 234 -237 232 -24 -3 -154 -132
-248 -246 -15 -19 -47 -55 -70 -80 -23 -25 -116 -128 -206 -229 -91 -102 -182
-203 -202 -225 -21 -23 -149 -166 -285 -318 -137 -152 -255 -277 -264 -277
-23 -1 -220 97 -340 170 -419 254 -797 628 -1043 1034 -192 315 -337 692 -405
1050 -68 361 -68 801 0 1155 68 351 214 733 392 1025 381 625 957 1092 1632
1325 456 158 924 210 1385 155z m-281 -5047 c51 -56 162 -179 420 -468 42 -47
101 -112 132 -145 187 -202 330 -368 323 -375 -14 -14 -249 -76 -369 -99 -390
-72 -830 -69 -1205 8 -88 18 -309 77 -316 84 -4 3 265 303 766 857 42 47 99
111 126 142 27 31 53 57 57 57 4 1 34 -27 66 -61z"/>
<path d="M2460 5620 l0 -150 1785 0 1785 0 0 150 0 150 -1785 0 -1785 0 0
-150z"/>
<path d="M2620 4900 l0 -150 150 0 150 0 0 150 0 150 -150 0 -150 0 0 -150z"/>
<path d="M3220 4900 l0 -151 148 3 147 3 3 148 3 147 -151 0 -150 0 0 -150z"/>
<path d="M3812 4903 l3 -148 148 -3 147 -3 0 151 0 150 -150 0 -151 0 3 -147z"/>
<path d="M4410 4900 l0 -150 150 0 150 0 0 150 0 150 -150 0 -150 0 0 -150z"/>
<path d="M5010 4900 l0 -150 150 0 150 0 0 150 0 150 -150 0 -150 0 0 -150z"/>
<path d="M5610 4900 l0 -151 148 3 147 3 3 148 3 147 -151 0 -150 0 0 -150z"/>
<path d="M2640 4200 l0 -151 148 3 147 3 3 148 3 147 -151 0 -150 0 0 -150z"/>
<path d="M3240 4200 l0 -150 145 0 145 0 0 150 0 150 -145 0 -145 0 0 -150z"/>
<path d="M3832 4203 l3 -148 148 -3 147 -3 0 151 0 150 -150 0 -151 0 3 -147z"/>
<path d="M4430 4200 l0 -150 150 0 150 0 0 150 0 150 -150 0 -150 0 0 -150z"/>
<path d="M5030 4200 l0 -151 148 3 147 3 3 148 3 147 -151 0 -150 0 0 -150z"/>
<path d="M5630 4200 l0 -150 145 0 145 0 0 150 0 150 -145 0 -145 0 0 -150z"/>
<path d="M2630 3485 l0 -145 150 0 150 0 0 145 0 145 -150 0 -150 0 0 -145z"/>
<path d="M3230 3485 l0 -145 150 0 150 0 0 145 0 145 -150 0 -150 0 0 -145z"/>
<path d="M3830 3485 l0 -145 145 0 145 0 0 145 0 145 -145 0 -145 0 0 -145z"/>
<path d="M4420 3486 c0 -126 2 -145 16 -148 9 -2 77 -2 150 0 l134 3 0 145 0
144 -150 0 -150 0 0 -144z"/>
<path d="M5020 3485 l0 -145 150 0 150 0 0 145 0 145 -150 0 -150 0 0 -145z"/>
<path d="M5622 3484 l3 -147 140 1 c77 1 143 2 148 2 4 0 7 65 7 145 l0 145
-150 0 -151 0 3 -146z"/>
<path d="M2480 2500 l0 -360 170 0 170 0 0 210 0 210 1445 0 1445 0 0 -210 0
-210 175 0 175 0 -2 358 -3 357 -1787 3 -1788 2 0 -360z"/>
<path d="M2084 6895 c-51 -31 -76 -67 -76 -112 0 -42 5 -48 30 -34 14 7 18 17
15 36 -4 19 2 32 27 55 38 35 79 39 105 10 19 -21 18 -22 -43 -80 -34 -33 -64
-71 -68 -85 -8 -31 12 -82 37 -95 51 -28 130 8 163 73 14 30 21 35 31 27 10
-8 19 -8 35 0 l22 12 -25 26 c-13 15 -43 56 -67 91 -23 35 -51 72 -61 82 -26
26 -76 24 -125 -6z m160 -127 c9 -12 16 -32 16 -43 0 -33 -36 -82 -69 -93 -27
-10 -35 -8 -51 8 -11 11 -20 26 -20 34 0 15 88 116 101 116 4 0 15 -10 23 -22z"/>
<path d="M6410 6809 c-32 -13 -88 -66 -106 -101 -8 -15 -14 -50 -14 -79 0 -45
4 -55 34 -85 25 -25 43 -34 66 -34 24 0 31 -4 27 -14 -7 -18 20 -43 33 -30 5
5 63 81 129 169 89 119 117 163 109 172 -19 23 -35 14 -69 -37 -19 -27 -37
-50 -41 -50 -4 0 -13 12 -20 27 -26 53 -97 83 -148 62z m92 -53 c49 -36 42
-101 -17 -162 -34 -36 -48 -44 -78 -44 -63 0 -95 66 -63 129 37 71 116 109
158 77z"/>
<path d="M1860 6730 c-11 -11 -20 -32 -20 -46 0 -23 -2 -25 -16 -14 -12 11
-18 11 -29 -1 -13 -13 -3 -30 81 -132 78 -96 98 -116 110 -106 21 17 18 25
-40 97 -29 37 -59 78 -66 90 -15 30 -6 68 20 82 11 6 20 20 20 30 0 26 -34 26
-60 0z"/>
<path d="M6700 6560 c-12 -7 -13 -13 -3 -27 6 -10 17 -16 25 -14 7 2 20 6 29
8 9 3 33 -9 53 -27 39 -35 48 -77 22 -99 -17 -14 -39 -5 -99 41 -53 42 -105
47 -142 15 -60 -51 -16 -152 78 -178 30 -8 37 -14 32 -28 -3 -11 1 -24 11 -32
14 -11 18 -11 30 5 17 24 54 67 111 128 55 60 58 100 12 153 -51 58 -118 81
-159 55z m22 -162 c29 -18 55 -34 57 -35 3 -2 -6 -14 -19 -28 -59 -63 -202 12
-144 76 24 26 44 24 106 -13z"/>
<path d="M1542 6253 c-99 -105 -109 -120 -96 -133 12 -12 16 -12 23 -2 4 7 54
60 111 118 93 94 102 106 88 120 -13 14 -26 3 -126 -103z"/>
<path d="M6967 6283 c-128 -200 -126 -196 -114 -215 16 -25 27 -23 115 21 130
65 132 64 68 -26 -78 -107 -83 -120 -63 -140 15 -15 24 -13 124 30 59 25 125
52 146 61 40 16 45 27 23 45 -10 9 -32 3 -92 -25 -43 -20 -94 -42 -113 -50
l-33 -14 17 28 c10 15 40 57 66 94 52 72 57 89 35 107 -12 10 -36 2 -122 -38
-59 -28 -109 -50 -111 -47 -2 2 25 46 61 97 36 52 66 99 66 105 0 6 -7 17 -15
24 -12 10 -21 0 -58 -57z"/>
<path d="M1112 5935 c-43 -36 -72 -87 -74 -127 -1 -35 16 -78 32 -78 15 0 32
38 20 45 -19 12 -10 63 16 94 17 21 35 31 54 31 50 0 53 -19 15 -99 -19 -40
-35 -84 -35 -98 0 -32 51 -83 83 -83 52 0 117 81 117 146 0 19 4 25 15 20 15
-5 45 18 45 35 0 5 -6 9 -14 9 -8 0 -54 27 -103 59 -111 75 -130 80 -171 46z
m173 -117 c29 -35 29 -67 -1 -113 -31 -47 -94 -34 -94 20 0 26 46 125 59 125
5 0 21 -14 36 -32z"/>
<path d="M7223 5848 c-105 -71 -120 -84 -112 -100 5 -10 13 -18 18 -18 5 0 46
25 91 55 94 62 127 69 165 30 29 -28 32 -66 8 -90 -9 -10 -54 -42 -100 -72
-73 -48 -82 -57 -73 -74 6 -10 13 -19 17 -19 15 0 204 133 213 150 28 52 -2
123 -63 150 -32 15 -38 20 -24 25 13 6 14 11 6 26 -5 10 -13 19 -17 18 -4 0
-62 -37 -129 -81z"/>
<path d="M811 5697 c-21 -21 -11 -34 50 -67 l61 -32 -30 -19 c-40 -24 -52 -48
-52 -103 0 -37 6 -52 32 -82 38 -43 99 -73 148 -74 71 0 138 70 126 131 -4 23
-2 27 10 22 14 -5 33 11 34 29 0 3 -73 45 -162 93 -90 49 -173 94 -184 101
-16 9 -24 10 -33 1z m218 -157 c78 -39 102 -100 56 -145 -40 -41 -104 -32
-169 25 -43 38 -48 81 -14 117 27 29 75 30 127 3z"/>
<path d="M7535 5607 c-44 -52 -181 -205 -197 -219 -30 -27 -73 -23 -97 8 -13
16 -27 24 -36 20 -21 -8 -19 -28 6 -60 17 -22 28 -26 72 -26 57 1 384 44 392
52 11 11 -8 38 -26 38 -10 0 -66 -7 -125 -16 -58 -8 -107 -14 -110 -12 -4 5
27 40 104 120 46 47 54 60 48 82 -7 28 -15 32 -31 13z"/>
<path d="M773 5273 c-33 -7 -80 -60 -91 -105 -18 -71 9 -128 78 -163 72 -36
138 -35 183 5 59 52 68 149 20 202 -39 43 -133 74 -190 61z m90 -59 c84 -29
115 -107 62 -159 -61 -62 -205 -2 -205 84 0 44 7 56 45 75 37 20 41 20 98 0z"/>
<path d="M7592 5242 c-58 -21 -87 -44 -108 -84 -42 -81 23 -188 114 -188 29 0
33 3 30 23 -2 17 -10 23 -39 25 -43 4 -66 25 -75 70 -6 28 -2 37 29 66 43 40
111 62 149 47 52 -20 72 -76 42 -119 -17 -25 -13 -52 10 -52 43 0 60 102 26
157 -39 65 -97 83 -178 55z"/>
<path d="M7760 4921 c-164 -52 -185 -61 -185 -80 0 -11 4 -22 8 -23 4 0 53 12
108 27 93 27 103 28 127 14 15 -8 33 -28 41 -44 25 -52 3 -73 -124 -114 -101
-33 -110 -38 -107 -59 2 -16 9 -21 20 -18 134 36 221 69 240 89 38 40 24 130
-25 160 -24 14 -14 22 53 41 56 16 65 22 62 40 -2 11 -10 22 -18 23 -8 1 -98
-25 -200 -56z"/>
<path d="M603 4950 c-6 -24 -9 -24 -62 -5 l-41 14 0 -25 c0 -21 8 -29 40 -41
30 -12 39 -20 35 -33 -7 -22 23 -36 31 -15 8 21 20 19 121 -15 129 -44 153
-40 173 29 8 28 7 31 -15 31 -15 0 -26 -7 -30 -20 -8 -26 -13 -26 -122 11 -89
29 -93 32 -93 60 0 34 -29 41 -37 9z"/>
<path d="M531 4694 c-26 -34 -37 -89 -22 -120 15 -33 14 -34 -9 -34 -13 0 -20
-7 -20 -20 0 -14 10 -22 38 -29 79 -21 255 -61 257 -59 2 2 5 12 9 24 6 19 0
22 -71 39 -43 9 -97 26 -120 35 -35 15 -43 24 -49 54 -4 26 -2 43 10 61 20 31
53 32 156 5 101 -26 122 -26 118 2 -3 19 -17 25 -93 45 -125 31 -178 31 -204
-3z"/>
<path d="M7929 4380 c-85 -15 -172 -30 -192 -34 -31 -6 -37 -11 -37 -31 0 -14
3 -25 6 -25 4 0 96 16 205 35 110 19 201 35 204 35 3 0 5 11 5 25 0 30 8 31
-191 -5z"/>
<path d="M525 4349 c-63 -20 -95 -64 -95 -135 0 -38 6 -59 22 -79 47 -60 162
-84 225 -45 42 25 62 57 68 111 7 50 -15 103 -52 127 -20 13 -23 12 -29 -3 -4
-10 -3 -23 2 -30 43 -58 46 -66 40 -100 -8 -39 -52 -75 -93 -75 -27 0 -28 7
-9 137 15 110 8 119 -79 92z m34 -135 c-6 -43 -13 -80 -14 -82 -5 -5 -41 16
-59 34 -23 23 -21 90 4 112 24 20 62 32 73 22 4 -3 2 -42 -4 -86z"/>
<path d="M7755 4185 c-36 -35 -35 -115 0 -168 20 -29 22 -37 10 -37 -10 0 -15
-10 -15 -30 0 -27 2 -29 18 -21 10 6 65 15 121 20 140 15 161 29 161 108 0 85
-41 153 -91 153 -31 0 -25 -46 6 -54 28 -7 45 -40 45 -86 0 -35 -23 -60 -55
-60 -20 0 -26 7 -35 40 -5 22 -15 58 -20 79 -20 75 -97 105 -145 56z m105 -68
c4 -12 15 -43 23 -69 l14 -48 -36 0 c-47 0 -77 21 -91 65 -14 42 -5 74 23 84
27 11 55 -3 67 -32z"/>
<path d="M339 3955 c-42 -23 -59 -80 -59 -199 l0 -103 152 -6 c83 -4 177 -7
210 -7 54 0 58 1 58 24 0 20 -6 24 -46 30 -26 3 -64 6 -85 6 l-39 0 0 85 c0
101 -16 147 -59 169 -37 20 -97 20 -132 1z m124 -67 c13 -16 17 -39 17 -105
l0 -84 -77 3 -76 3 2 79 c1 44 7 88 12 99 22 40 89 44 122 5z"/>
<path d="M8017 3840 c-5 -19 -14 -20 -120 -20 -133 0 -147 -7 -147 -71 0 -32
3 -39 20 -39 15 0 22 9 27 30 l6 30 98 0 c55 0 102 1 107 3 4 1 8 -10 10 -25
4 -37 42 -40 42 -4 0 27 16 36 66 36 37 0 40 6 20 33 -8 11 -27 17 -50 17 -25
0 -36 4 -36 15 0 22 -37 18 -43 -5z"/>
</g>
</svg>
